<svg width="1408" height="350" viewBox="0 0 1408 350" fill="none" xmlns="http://www.w3.org/2000/svg">
<path d="M11.7912 286.158L0.957688 79.442C8.43213 76.8473 15.9432 74.9516 23.4909 73.7549C31.2279 72.3481 39.5902 71.4092 48.5779 70.9381C64.556 70.1008 77.4588 71.7277 87.2864 75.819C97.3032 79.7001 104.686 86.8234 109.435 97.1891C114.373 107.345 117.314 121.41 118.256 139.385C118.957 152.767 118.345 164.014 116.419 173.128C114.683 182.031 111.754 189.194 107.632 194.617C103.499 199.84 98.2058 203.923 91.7509 206.865L131.627 279.878L101.668 281.448L65.1019 214.27L35.1431 215.84L38.7542 284.745L11.7912 286.158ZM34.044 194.869L55.0152 193.77C68.5966 193.058 78.2946 188.945 84.1093 181.43C89.9135 173.716 92.308 160.172 91.2926 140.798C90.5809 127.217 88.628 116.705 85.4341 109.262C82.4399 101.808 77.9683 96.7353 72.0192 94.043C66.0597 91.1509 58.5861 89.9404 49.5984 90.4114L28.6272 91.5105L34.044 194.869ZM197.658 279.422C185.675 280.05 175.463 278.182 167.023 273.817C158.572 269.253 151.852 261.394 146.861 250.24C142.07 239.076 139.167 223.807 138.152 204.433C137.126 184.86 138.417 169.371 142.026 157.967C145.823 146.352 151.69 137.933 159.628 132.711C167.555 127.289 177.51 124.263 189.494 123.635C201.477 123.007 211.694 124.975 220.145 129.539C228.785 133.893 235.5 141.652 240.291 152.817C245.071 163.782 247.974 179.051 249 198.624C250.015 217.997 248.724 233.486 245.127 245.09C241.529 256.694 235.667 265.213 227.54 270.646C219.602 275.868 209.642 278.794 197.658 279.422ZM196.795 262.944C201.788 262.683 206.287 260.644 210.293 256.829C214.499 253.004 217.669 246.629 219.805 237.705C222.13 228.571 222.874 216.015 222.037 200.037C221.2 184.059 219.153 171.749 215.896 163.108C212.828 154.256 209.003 148.148 204.421 144.783C200.038 141.408 195.351 139.851 190.357 140.113C185.364 140.374 180.765 142.418 176.559 146.243C172.553 150.058 169.388 156.533 167.063 165.667C164.927 174.591 164.278 187.042 165.115 203.02C165.952 218.998 167.905 231.413 170.972 240.265C174.229 248.906 178.049 254.914 182.431 258.29C187.014 261.654 191.802 263.206 196.795 262.944ZM321.976 272.906C309.992 273.534 299.781 271.666 291.341 267.302C282.89 262.738 276.17 254.879 271.179 243.725C266.388 232.56 263.485 217.291 262.47 197.918C261.444 178.345 262.735 162.856 266.343 151.452C270.141 139.837 276.008 131.418 283.946 126.196C291.873 120.773 301.828 117.748 313.812 117.12C325.795 116.492 336.012 118.46 344.463 123.024C353.102 127.378 359.817 135.137 364.608 146.302C369.389 157.267 372.292 172.535 373.318 192.109C374.333 211.482 373.042 226.971 369.444 238.575C365.847 250.179 359.984 258.698 351.858 264.13C343.92 269.353 333.959 272.278 321.976 272.906ZM321.112 256.429C326.106 256.167 330.605 254.129 334.611 250.314C338.816 246.489 341.987 240.114 344.123 231.19C346.448 222.056 347.192 209.5 346.355 193.522C345.517 177.544 343.47 165.234 340.214 156.592C337.146 147.741 333.321 141.633 328.739 138.268C324.356 134.893 319.668 133.336 314.675 133.598C309.682 133.859 305.083 135.903 300.877 139.728C296.871 143.543 293.706 150.018 291.381 159.152C289.245 168.076 288.595 180.527 289.433 196.505C290.27 212.483 292.223 224.898 295.29 233.749C298.547 242.391 302.366 248.399 306.749 251.774C311.331 255.139 316.119 256.691 321.112 256.429ZM398.202 265.907L387.369 59.1911C394.843 56.5963 402.354 54.7006 409.902 53.504C417.639 52.0971 426.001 51.1582 434.989 50.6872C450.967 49.8498 463.87 51.4768 473.698 55.568C483.714 59.4491 491.097 66.5725 495.846 76.9381C500.785 87.0936 503.725 101.159 504.667 119.134C505.368 132.516 504.756 143.763 502.83 152.877C501.094 161.78 498.165 168.943 494.043 174.366C489.911 179.589 484.617 183.672 478.162 186.614L518.038 259.627L488.079 261.197L451.513 194.019L421.554 195.589L425.165 264.494L398.202 265.907ZM420.455 174.618L441.426 173.519C455.008 172.807 464.706 168.694 470.52 161.179C476.325 153.465 478.719 139.921 477.704 120.547C476.992 106.966 475.039 96.4538 471.845 89.0108C468.851 81.5573 464.379 76.4844 458.43 73.792C452.471 70.9 444.997 69.6894 436.01 70.1605L415.038 71.2595L420.455 174.618ZM573.584 259.72C564.596 260.191 556.639 259.306 549.712 257.066C542.985 254.815 537.546 250.393 533.396 243.802C529.234 237.01 526.814 227.123 526.133 214.141C525.474 201.558 526.869 191.872 530.318 185.082C533.757 178.093 538.709 173.227 545.175 170.485C551.829 167.532 559.65 165.821 568.638 165.35C573.232 165.109 578.241 165.147 583.665 165.463C589.288 165.77 594.318 166.207 598.754 166.775L598.047 153.294C597.336 139.713 593.974 130.977 587.962 127.086C582.15 123.185 573.951 121.512 563.366 122.066L533.407 123.636L532.779 111.653C537.289 109.814 542.808 108.123 549.336 106.579C556.064 105.025 562.423 104.091 568.415 103.777C580.399 103.149 590.458 104.024 598.594 106.401C606.719 108.579 612.973 113.258 617.354 120.439C621.726 127.419 624.278 137.9 625.01 151.881L630.349 253.741L607.879 254.919L605.91 246.01L604.413 246.088C600.817 250.082 596.28 253.324 590.803 255.814C585.315 258.104 579.576 259.406 573.584 259.72ZM581.629 241.274C585.424 241.075 589.287 240.272 593.219 238.864C597.14 237.257 600.163 235.696 602.287 234.183L599.539 181.755L578.568 182.854C573.575 183.116 569.023 184.155 564.912 185.973C561.001 187.78 557.958 190.844 555.781 195.163C553.593 199.284 552.699 205.138 553.096 212.728C553.515 220.717 555.038 226.846 557.665 231.114C560.281 235.183 563.634 238.011 567.723 239.599C572.001 240.977 576.636 241.536 581.629 241.274ZM702.61 313.041C696.618 313.355 690.19 312.99 683.326 311.948C676.672 311.095 671.012 310.09 666.345 308.933L665.717 296.949L695.676 295.379C709.257 294.667 718.955 290.554 724.77 283.04C730.595 275.725 733.016 262.68 732.032 243.906C727.753 246.333 723.254 248.372 718.533 250.021C713.813 251.67 708.457 252.652 702.465 252.966C693.078 253.458 684.827 252.689 677.711 250.658C670.584 248.428 664.956 244.217 660.826 238.025C656.686 231.632 654.302 222.445 653.674 210.461L648.022 102.609L674.985 101.196L680.637 209.048C681.181 219.434 684.249 226.383 689.841 229.895C695.432 233.407 702.322 234.949 710.511 234.519C714.306 234.321 718.169 233.517 722.101 232.11C726.022 230.502 729.045 228.942 731.168 227.429L724.417 98.6054L751.38 97.1923L758.602 235.003C759.597 253.977 758.279 268.967 754.65 279.972C751.032 291.176 744.949 299.306 736.402 304.36C727.855 309.414 716.591 312.308 702.61 313.041ZM769.552 102.248L766.098 36.3386L794.559 34.847L789.026 101.228L769.552 102.248ZM850.622 245.201C844.63 245.515 838.202 245.151 831.338 244.109C824.684 243.256 819.024 242.251 814.357 241.094L813.729 229.11L843.688 227.54C857.269 226.828 867.067 224.612 873.08 220.893C879.083 216.973 881.849 210.519 881.378 201.532C881.064 195.54 879.115 190.835 875.532 187.418C871.948 184.001 867.397 181.236 861.879 179.122C856.55 176.797 850.732 174.699 844.425 172.826C838.308 170.744 832.464 168.146 826.893 165.033C821.512 161.71 816.977 157.342 813.289 151.927C809.6 146.513 807.521 139.312 807.05 130.324C806.265 115.345 810.225 104.923 818.93 99.0596C827.624 92.9962 840.959 89.4935 858.935 88.5515C864.926 88.2375 871.349 88.5017 878.202 89.3442C885.056 90.1866 890.721 91.2916 895.199 92.6592L895.827 104.643L865.868 106.213C855.483 106.757 847.477 108.779 841.853 112.278C836.228 115.777 833.615 121.322 834.013 128.911C834.327 134.903 836.276 139.607 839.859 143.024C843.443 146.442 847.899 149.312 853.228 151.637C858.747 153.751 864.564 155.849 870.682 157.932C876.988 159.804 882.832 162.402 888.214 165.725C893.784 168.838 898.414 173.101 902.102 178.516C905.79 183.93 907.87 191.131 908.341 200.119C908.917 211.104 907.27 219.802 903.4 226.213C899.52 232.425 893.249 236.959 884.586 239.816C875.924 242.674 864.602 244.469 850.622 245.201ZM1037.72 235.396C1028.74 235.867 1020.32 235.807 1012.48 235.217C1004.85 234.815 997.181 233.715 989.476 231.916L978.799 28.1955C986.274 25.6008 993.785 23.7051 1001.33 22.5084C1009.07 21.1016 1017.43 20.1626 1026.42 19.6916C1047.39 18.5926 1062.81 22.3908 1072.68 31.0862C1082.74 39.5714 1088.26 53.2012 1089.24 71.9754C1089.71 80.9631 1088.36 89.4458 1085.17 97.4235C1082.18 105.391 1076.32 112.106 1067.6 117.571L1067.66 118.769C1079.82 121.536 1088.66 127.682 1094.16 137.207C1099.67 146.732 1102.78 158.285 1103.49 171.867C1104.59 192.838 1100.3 208.384 1090.61 218.504C1080.92 228.425 1063.29 234.056 1037.72 235.396ZM1015.73 217.021L1036.7 215.922C1051.68 215.137 1062.21 211.482 1068.27 204.955C1074.53 198.218 1077.28 187.66 1076.53 173.28C1075.7 157.501 1071.82 146.489 1064.88 140.244C1058.14 133.988 1047.29 131.252 1032.31 132.037L1011.34 133.137L1015.73 217.021ZM1010.32 113.663L1028.29 112.721C1040.27 112.093 1049.11 108.626 1054.78 102.32C1060.45 95.8149 1062.95 86.1709 1062.28 73.3885C1061.65 61.4049 1058.18 52.5743 1051.88 46.8965C1045.57 41.2187 1036.43 38.6939 1024.44 39.3219L1006.47 40.2639L1010.32 113.663ZM1125.95 227.768L1114.96 18.0558L1141.92 16.6427L1152.91 226.355L1125.95 227.768ZM1229.6 225.34C1217.62 225.968 1207.41 224.1 1198.97 219.735C1190.52 215.171 1183.8 207.312 1178.8 196.158C1174.01 184.994 1171.11 169.725 1170.1 150.351C1169.07 130.778 1170.36 115.289 1173.97 103.885C1177.77 92.2702 1183.63 83.8516 1191.57 78.629C1199.5 73.2067 1209.45 70.1816 1221.44 69.5535C1233.42 68.9255 1243.64 70.8935 1252.09 75.4575C1260.73 79.8113 1267.44 87.5705 1272.23 98.735C1277.01 109.7 1279.92 124.969 1280.94 144.542C1281.96 163.915 1280.67 179.404 1277.07 191.008C1273.47 202.613 1267.61 211.131 1259.48 216.564C1251.55 221.786 1241.59 224.712 1229.6 225.34ZM1228.74 208.862C1233.73 208.601 1238.23 206.562 1242.24 202.748C1246.44 198.922 1249.61 192.548 1251.75 183.623C1254.07 174.489 1254.82 161.933 1253.98 145.955C1253.14 129.977 1251.1 117.667 1247.84 109.026C1244.77 100.174 1240.95 94.0661 1236.36 90.7013C1231.98 87.326 1227.29 85.7692 1222.3 86.0309C1217.31 86.2926 1212.71 88.3361 1208.5 92.1615C1204.5 95.9763 1201.33 102.451 1199.01 111.585C1196.87 120.509 1196.22 132.96 1197.06 148.938C1197.9 164.916 1199.85 177.331 1202.92 186.183C1206.17 194.824 1209.99 200.832 1214.37 204.208C1218.96 207.572 1223.74 209.124 1228.74 208.862ZM1348.07 279.213C1342.08 279.527 1335.65 279.163 1328.79 278.121C1322.13 277.268 1316.47 276.263 1311.81 275.106L1311.18 263.122L1341.14 261.552C1354.72 260.84 1364.42 256.727 1370.23 249.212C1376.06 241.898 1378.48 228.853 1377.49 210.079C1373.21 212.506 1368.72 214.544 1364 216.194C1359.28 217.843 1353.92 218.825 1347.93 219.139C1337.54 219.683 1328.53 217.852 1320.9 213.645C1313.26 209.239 1307.15 201.549 1302.57 190.573C1298.18 179.388 1295.46 163.809 1294.41 143.836C1293.37 123.863 1294.55 108.18 1297.96 96.7862C1301.55 85.182 1307.53 76.858 1315.87 71.8142C1324.41 66.5602 1335.37 63.5826 1348.75 62.8813C1357.74 62.4103 1366.17 62.7696 1374.04 63.9592C1381.9 64.949 1389.61 66.7482 1397.16 69.3569L1404.06 201.176C1405.06 220.15 1403.74 235.139 1400.11 246.144C1396.49 257.349 1390.41 265.479 1381.86 270.533C1373.32 275.587 1362.05 278.481 1348.07 279.213ZM1355.97 200.692C1359.77 200.493 1363.63 199.69 1367.56 198.282C1371.48 196.675 1374.51 195.115 1376.63 193.601L1370.66 79.7576L1349.69 80.8566C1343.3 81.1916 1337.8 83.1823 1333.18 86.8289C1328.56 90.2757 1325.18 96.4611 1323.04 105.385C1321.09 114.099 1320.54 126.445 1321.38 142.423C1322.21 158.401 1324.06 170.721 1326.92 179.384C1329.96 187.836 1333.97 193.634 1338.94 196.778C1343.91 199.722 1349.58 201.027 1355.97 200.692Z" fill="white"/>
</svg>
