<svg width="763" height="316" viewBox="0 0 763 316" fill="none" xmlns="http://www.w3.org/2000/svg">
<path d="M12.0496 252.808L1.21605 46.0919C8.6905 43.4972 16.2016 41.6015 23.7493 40.4048C31.4863 38.998 39.8486 38.059 48.8363 37.588C64.8143 36.7507 77.7172 38.3776 87.5448 42.4689C97.5616 46.35 104.945 53.4733 109.694 63.839C114.632 73.9945 117.572 88.0599 118.514 106.035C119.215 119.417 118.603 130.664 116.677 139.778C114.941 148.681 112.012 155.844 107.89 161.267C103.758 166.49 98.4642 170.573 92.0093 173.515L131.885 246.528L101.926 248.098L65.3603 180.92L35.4014 182.49L39.0126 251.395L12.0496 252.808ZM34.3024 161.519L55.2736 160.419C68.8549 159.708 78.553 155.595 84.3677 148.08C90.1719 140.366 92.5663 126.822 91.551 107.448C90.8392 93.8669 88.8864 83.3547 85.6925 75.9116C82.6983 68.4581 78.2267 63.3852 72.2776 60.6929C66.3181 57.8008 58.8445 56.5903 49.8568 57.0613L28.8856 58.1604L34.3024 161.519ZM197.917 246.072C185.933 246.7 175.721 244.831 167.281 240.467C158.831 235.903 152.11 228.044 147.12 216.89C142.329 205.725 139.426 190.456 138.41 171.083C137.385 151.51 138.676 136.021 142.284 124.617C146.081 113.002 151.949 104.583 159.886 99.3608C167.813 93.9385 177.769 90.9133 189.752 90.2853C201.736 89.6572 211.953 91.6252 220.403 96.1892C229.043 100.543 235.758 108.302 240.549 119.467C245.329 130.432 248.233 145.701 249.258 165.274C250.274 184.647 248.983 200.136 245.385 211.74C241.787 223.344 235.925 231.863 227.798 237.296C219.861 242.518 209.9 245.443 197.917 246.072ZM197.053 229.594C202.046 229.332 206.546 227.294 210.552 223.479C214.757 219.654 217.928 213.279 220.064 204.355C222.389 195.221 223.133 182.665 222.295 166.687C221.458 150.709 219.411 138.399 216.154 129.758C213.087 120.906 209.262 114.798 204.679 111.433C200.297 108.058 195.609 106.501 190.616 106.763C185.623 107.024 181.023 109.068 176.818 112.893C172.812 116.708 169.646 123.183 167.321 132.317C165.185 141.241 164.536 153.692 165.373 169.67C166.211 185.648 168.163 198.063 171.231 206.914C174.487 215.556 178.307 221.564 182.69 224.939C187.272 228.304 192.06 229.856 197.053 229.594ZM322.234 239.556C310.251 240.184 300.039 238.316 291.599 233.952C283.149 229.388 276.428 221.529 271.437 210.375C266.647 199.21 263.743 183.941 262.728 164.568C261.702 144.995 262.993 129.506 266.602 118.101C270.399 106.487 276.266 98.0681 284.204 92.8456C292.131 87.4233 302.086 84.3981 314.07 83.7701C326.053 83.142 336.27 85.11 344.721 89.674C353.361 94.0278 360.076 101.787 364.867 112.952C369.647 123.916 372.55 139.185 373.576 158.759C374.591 178.132 373.3 193.621 369.703 205.225C366.105 216.829 360.243 225.348 352.116 230.78C344.178 236.003 334.218 238.928 322.234 239.556ZM321.371 223.079C326.364 222.817 330.863 220.779 334.869 216.964C339.075 213.139 342.245 206.764 344.381 197.84C346.707 188.706 347.45 176.15 346.613 160.172C345.776 144.194 343.729 131.884 340.472 123.242C337.404 114.391 333.579 108.283 328.997 104.918C324.614 101.543 319.927 99.9858 314.933 100.247C309.94 100.509 305.341 102.553 301.135 106.378C297.13 110.193 293.964 116.667 291.639 125.802C289.503 134.726 288.854 147.177 289.691 163.155C290.529 179.133 292.481 191.548 295.548 200.399C298.805 209.041 302.625 215.049 307.007 218.424C311.59 221.789 316.378 223.341 321.371 223.079ZM398.461 232.557L387.627 25.841C395.102 23.2462 402.613 21.3505 410.16 20.1539C417.897 18.747 426.26 17.8081 435.247 17.3371C451.225 16.4997 464.128 18.1266 473.956 22.2179C483.973 26.099 491.356 33.2224 496.105 43.588C501.043 53.7435 503.983 67.8089 504.925 85.7842C505.626 99.1659 505.014 110.413 503.089 119.527C501.352 128.43 498.423 135.593 494.301 141.016C490.169 146.239 484.875 150.322 478.42 153.264L518.296 226.277L488.337 227.847L451.771 160.669L421.813 162.239L425.424 231.144L398.461 232.557ZM420.713 141.268L441.685 140.169C455.266 139.457 464.964 135.344 470.779 127.829C476.583 120.115 478.977 106.571 477.962 87.1973C477.25 73.6159 475.298 63.1037 472.104 55.6607C469.109 48.2072 464.638 43.1343 458.689 40.4419C452.729 37.5499 445.256 36.3393 436.268 36.8104L415.297 37.9094L420.713 141.268ZM573.842 226.37C564.854 226.841 556.897 225.956 549.97 223.716C543.243 221.465 537.805 217.043 533.654 210.452C529.493 203.66 527.072 193.773 526.392 180.791C525.732 168.208 527.127 158.522 530.577 151.732C534.015 144.743 538.968 139.877 545.433 137.135C552.088 134.182 559.909 132.471 568.896 132C573.49 131.759 578.499 131.797 583.923 132.113C589.547 132.419 594.576 132.857 599.012 133.425L598.306 119.944C597.594 106.363 594.232 97.6265 588.22 93.7358C582.408 89.8346 574.209 88.1614 563.624 88.7162L533.665 90.2863L533.037 78.3027C537.547 76.4642 543.066 74.773 549.594 73.2292C556.322 71.675 562.682 70.7409 568.674 70.4268C580.657 69.7988 590.717 70.6735 598.852 73.051C606.977 75.2288 613.231 79.9079 617.613 87.0884C621.984 94.0692 624.536 104.55 625.269 118.531L630.607 220.391L608.138 221.569L606.169 212.659L604.671 212.738C601.075 216.732 596.538 219.973 591.061 222.464C585.574 224.754 579.834 226.056 573.842 226.37ZM581.888 207.924C585.683 207.725 589.546 206.922 593.477 205.514C597.399 203.906 600.421 202.346 602.545 200.833L599.797 148.405L578.826 149.504C573.833 149.766 569.281 150.805 565.171 152.623C561.26 154.43 558.216 157.493 556.039 161.813C553.852 165.933 552.957 171.788 553.355 179.378C553.773 187.367 555.296 193.496 557.923 197.764C560.54 201.833 563.892 204.661 567.981 206.249C572.259 207.627 576.895 208.185 581.888 207.924ZM702.868 279.69C696.876 280.004 690.448 279.64 683.585 278.598C676.931 277.745 671.27 276.74 666.603 275.583L665.975 263.599L695.934 262.029C709.516 261.317 719.214 257.204 725.028 249.69C730.854 242.375 733.274 229.33 732.29 210.556C728.011 212.983 723.512 215.021 718.792 216.671C714.072 218.32 708.716 219.302 702.724 219.616C693.337 220.108 685.085 219.338 677.969 217.308C670.843 215.078 665.215 210.867 661.085 204.674C656.945 198.282 654.56 189.095 653.932 177.111L648.28 69.259L675.243 67.8459L680.895 175.698C681.44 186.084 684.508 193.033 690.099 196.545C695.691 200.057 702.581 201.598 710.769 201.169C714.564 200.97 718.428 200.167 722.359 198.759C726.28 197.152 729.303 195.592 731.427 194.078L724.675 65.2553L751.638 63.8422L758.861 201.653C759.855 220.627 758.538 235.617 754.909 246.622C751.29 257.826 745.207 265.956 736.66 271.01C728.113 276.064 716.849 278.958 702.868 279.69Z" fill="white"/>
</svg>
